# xmcd CD database file
#
# Track frame offsets:
#	150
#	13314
#	16710
#	27397
#	39673
#	46376
#	58830
#	80434
#	90488
#	98005
#
# Disc length: 1580 seconds
#
# Revision: 0
# Processed by: cddbd v1.5.2PL0 Copyright (c) Steve Scherf et al.
# Submitted via: CDex 1.51
#
DISCID=73062a0a
DTITLE=Kamil Holub - Jak paprsek Slunce na dreve zivota umiral
DYEAR=2000
DGENRE=New Age
TTITLE0=Povetron
TTITLE1=Velmi ticha a vzdalena hudba
TTITLE2=Golgota
TTITLE3=Neverim
TTITLE4=Anicka jeste nespi
TTITLE5=Zvire - divny bratr cloveka
TTITLE6=Krik soch
TTITLE7=Nezrozen
TTITLE8=Modlitba za Zemi
TTITLE9=Clovek - divny bratr zvirete
EXTD=YEAR: 2000
EXTT0=
EXTT1=
EXTT2=
EXTT3=
EXTT4=
EXTT5=
EXTT6=
EXTT7=
EXTT8=
EXTT9=
PLAYORDER=
